<svg width="20" height="20" viewBox="0 0 20 20" fill="none" xmlns="http://www.w3.org/2000/svg">
<g clip-path="url(#clip0_4049_1735)">
<path d="M10 8.18164V12.0544H15.3818C15.1455 13.2998 14.4363 14.3544 13.3727 15.0635L16.6181 17.5817C18.509 15.8363 19.5999 13.2726 19.5999 10.2272C19.5999 9.51812 19.5363 8.83623 19.4181 8.18175L10 8.18164Z" fill="#4285F4"/>
<path d="M4.39567 11.9033L3.66371 12.4636L1.07275 14.4818C2.7182 17.7454 6.09068 20 9.99974 20C12.6997 20 14.9633 19.1091 16.6179 17.5818L13.3724 15.0636C12.4815 15.6636 11.3451 16.0273 9.99974 16.0273C7.39976 16.0273 5.19073 14.2728 4.39976 11.9091L4.39567 11.9033Z" fill="#34A853"/>
<path d="M1.07265 5.51807C0.390868 6.86347 0 8.38167 0 9.99982C0 11.618 0.390868 13.1362 1.07265 14.4816C1.07265 14.4906 4.39998 11.8998 4.39998 11.8998C4.19998 11.2998 4.08177 10.6634 4.08177 9.99972C4.08177 9.336 4.19998 8.69967 4.39998 8.09968L1.07265 5.51807Z" fill="#FBBC05"/>
<path d="M9.99995 3.98182C11.4727 3.98182 12.7818 4.49089 13.8272 5.47272L16.6908 2.60912C14.9545 0.990971 12.7 0 9.99995 0C6.09089 0 2.7182 2.24545 1.07275 5.51819L4.39998 8.10001C5.19084 5.73635 7.39996 3.98182 9.99995 3.98182Z" fill="#EA4335"/>
</g>
<defs>
<clipPath id="clip0_4049_1735">
<rect width="20" height="20" fill="white"/>
</clipPath>
</defs>
</svg>
