<svg width="174" height="39" viewBox="0 0 174 39" fill="none" xmlns="http://www.w3.org/2000/svg">
<g clip-path="url(#clip0_4049_1716)">
<path d="M8.88882 14.1665C11.5555 18.6109 8.88882 23.6705 6.22216 22.7816C3.55549 21.8927 2.6666 24.5594 5.33327 25.4483C7.99993 26.3372 13.7466 25.0349 16.8888 21.8927C17.7777 21.0038 18.6666 21.0038 18.6666 21.0038L8.88882 14.1665Z" fill="#553788"/>
<path d="M23.1113 14.1665C20.4446 18.6109 23.1113 23.6705 25.7779 22.7816C28.4446 21.8927 29.3335 24.5594 26.6668 25.4483C24.0002 26.3372 18.2535 25.0349 15.1113 21.8927C14.2224 21.0038 13.3335 21.0038 13.3335 21.0038L23.1113 14.1665Z" fill="#553788"/>
<path d="M26.8337 17.7222C24.1671 22.1666 26.8337 27.2262 29.5004 26.3373C32.1671 25.4484 33.0559 28.1151 30.3893 29.0039C27.7226 29.8928 21.9759 28.5906 18.8337 25.4484C17.9448 24.5595 17.0559 24.5595 17.0559 24.5595L26.8337 17.7222ZM5.16617 17.7222C7.83283 22.1666 5.16617 27.2262 2.4995 26.3373C-0.167167 25.4484 -1.05606 28.1151 1.61061 29.0039C4.27728 29.8928 10.0239 28.5906 13.1662 25.4484C14.0551 24.5595 14.9439 24.5595 14.9439 24.5595L5.16617 17.7222Z" fill="#744EAA"/>
<path d="M29.5004 31.3889C27.0746 32.1978 23.7893 26.388 25.2231 21.9862C26.6862 19.1036 27.5555 15.8911 27.5555 13.2778C27.5555 6.89556 22.3822 3.5 15.9999 3.5C9.61772 3.5 4.44439 6.89556 4.44439 13.2778C4.44439 15.8911 5.31372 19.1036 6.77683 21.9862C8.21061 26.388 4.92528 32.1978 2.4995 31.3889C-0.167167 30.5 -1.05606 34.0556 1.61061 34.9444C4.27728 35.8333 8.99728 34.3871 12.2773 31.3889C14.2231 29.6111 16.0008 29.6111 16.0008 29.6111C16.0008 29.6111 17.7786 29.6111 19.7235 31.3889C23.0035 34.3871 27.7235 35.8333 30.3902 34.9444C33.0568 34.0556 32.1671 30.5 29.5004 31.3889Z" fill="#9266CC"/>
<path d="M12.4443 23.9442C13.4261 23.9442 14.2221 23.1483 14.2221 22.1664C14.2221 21.1846 13.4261 20.3887 12.4443 20.3887C11.4624 20.3887 10.6665 21.1846 10.6665 22.1664C10.6665 23.1483 11.4624 23.9442 12.4443 23.9442Z" fill="#292F33"/>
<path d="M19.5556 23.9442C20.5374 23.9442 21.3334 23.1483 21.3334 22.1664C21.3334 21.1846 20.5374 20.3887 19.5556 20.3887C18.5738 20.3887 17.7778 21.1846 17.7778 22.1664C17.7778 23.1483 18.5738 23.9442 19.5556 23.9442Z" fill="#292F33"/>
</g>
<path d="M45.1158 30V18.492H42.3998V15.86H46.0958L45.1158 16.756V14.6C45.1158 12.8453 45.5544 11.52 46.4318 10.624C47.3278 9.728 48.6251 9.28 50.3238 9.28C50.7344 9.28 51.1638 9.308 51.6118 9.364C52.0784 9.42 52.4798 9.52267 52.8158 9.672V12.416C52.5731 12.3227 52.2838 12.248 51.9478 12.192C51.6118 12.136 51.2851 12.108 50.9678 12.108C50.2398 12.108 49.6611 12.3227 49.2318 12.752C48.8024 13.1627 48.5878 13.8347 48.5878 14.768V16.476L48.0838 15.86H57.9118V30H54.4118V18.492H48.6158V30H45.1158ZM54.2158 13.2V9.784H58.1078V13.2H54.2158ZM61.7185 30V19.388C61.7185 18.8093 61.6998 18.2213 61.6625 17.624C61.6251 17.0267 61.5691 16.4387 61.4945 15.86H64.8825L65.1625 18.66H64.8265C65.2745 17.6707 65.9371 16.9147 66.8145 16.392C67.6918 15.8507 68.7091 15.58 69.8665 15.58C71.5278 15.58 72.7785 16.0467 73.6185 16.98C74.4585 17.9133 74.8785 19.3693 74.8785 21.348V30H71.3785V21.516C71.3785 20.3773 71.1545 19.5653 70.7065 19.08C70.2771 18.576 69.6238 18.324 68.7465 18.324C67.6638 18.324 66.8051 18.66 66.1705 19.332C65.5358 20.004 65.2185 20.9 65.2185 22.02V30H61.7185ZM78.1975 30V26.108H82.1175V30H78.1975ZM90.9128 30.28C89.6808 30.28 88.5982 29.9907 87.6648 29.412C86.7315 28.8147 86.0035 27.9653 85.4808 26.864C84.9582 25.7627 84.6968 24.4467 84.6968 22.916C84.6968 21.3853 84.9582 20.0787 85.4808 18.996C86.0035 17.8947 86.7315 17.0547 87.6648 16.476C88.5982 15.8787 89.6808 15.58 90.9128 15.58C92.1075 15.58 93.1528 15.8787 94.0488 16.476C94.9635 17.0547 95.5702 17.8387 95.8688 18.828H95.5608L95.8688 15.86H99.2288C99.1728 16.4387 99.1168 17.0267 99.0608 17.624C99.0235 18.2213 99.0048 18.8093 99.0048 19.388V30H95.5328L95.5048 27.088H95.8408C95.5422 28.0587 94.9355 28.8333 94.0208 29.412C93.1062 29.9907 92.0702 30.28 90.9128 30.28ZM91.8928 27.592C92.9942 27.592 93.8808 27.2093 94.5528 26.444C95.2248 25.66 95.5608 24.484 95.5608 22.916C95.5608 21.348 95.2248 20.1813 94.5528 19.416C93.8808 18.6507 92.9942 18.268 91.8928 18.268C90.7915 18.268 89.9048 18.6507 89.2328 19.416C88.5608 20.1813 88.2248 21.348 88.2248 22.916C88.2248 24.484 88.5515 25.66 89.2048 26.444C89.8768 27.2093 90.7728 27.592 91.8928 27.592ZM106.599 30L101.083 15.86H104.695L108.671 26.864H107.943L111.975 15.86H114.467L118.471 26.864H117.827L121.775 15.86H125.191L119.675 30H116.595L112.367 18.744H113.851L109.707 30H106.599ZM135.462 30V26.136H126.642V23.616L136.022 10.26H138.934V23.392H141.762V26.136H138.934V30H135.462ZM135.462 23.392V14.516H136.134L129.33 24.232V23.392H135.462ZM143.907 36.356L143.095 33.584C143.973 33.3973 144.71 33.1827 145.307 32.94C145.905 32.6973 146.399 32.38 146.791 31.988C147.183 31.596 147.51 31.092 147.771 30.476L148.471 28.824L148.387 30.196L142.227 15.86H145.951L150.375 26.892H149.563L154.015 15.86H157.543L151.103 30.784C150.674 31.792 150.207 32.6227 149.703 33.276C149.199 33.948 148.658 34.48 148.079 34.872C147.501 35.2827 146.866 35.6 146.175 35.824C145.485 36.048 144.729 36.2253 143.907 36.356ZM164.157 30.28C162.944 30.28 161.824 30.14 160.797 29.86C159.789 29.5613 158.94 29.1507 158.249 28.628L159.229 26.276C159.938 26.7613 160.722 27.1347 161.581 27.396C162.44 27.6573 163.308 27.788 164.185 27.788C165.118 27.788 165.809 27.6293 166.257 27.312C166.724 26.9947 166.957 26.5653 166.957 26.024C166.957 25.5947 166.808 25.2587 166.509 25.016C166.229 24.7547 165.772 24.5587 165.137 24.428L162.337 23.896C161.142 23.6347 160.228 23.1867 159.593 22.552C158.977 21.9173 158.669 21.0867 158.669 20.06C158.669 19.1827 158.902 18.408 159.369 17.736C159.854 17.064 160.536 16.5413 161.413 16.168C162.309 15.776 163.354 15.58 164.549 15.58C165.594 15.58 166.574 15.72 167.489 16C168.422 16.28 169.206 16.7 169.841 17.26L168.833 19.528C168.254 19.0613 167.592 18.6973 166.845 18.436C166.098 18.1747 165.37 18.044 164.661 18.044C163.69 18.044 162.981 18.2213 162.533 18.576C162.085 18.912 161.861 19.3507 161.861 19.892C161.861 20.3027 161.992 20.648 162.253 20.928C162.533 21.1893 162.962 21.3853 163.541 21.516L166.341 22.048C167.592 22.2907 168.534 22.72 169.169 23.336C169.822 23.9333 170.149 24.7547 170.149 25.8C170.149 26.7333 169.897 27.536 169.393 28.208C168.889 28.88 168.189 29.3933 167.293 29.748C166.397 30.1027 165.352 30.28 164.157 30.28Z" fill="white"/>
<defs>
<clipPath id="clip0_4049_1716">
<rect width="32" height="32" fill="white" transform="translate(0 3.5)"/>
</clipPath>
</defs>
</svg>
